<svg width="33" height="32" viewBox="0 0 33 32" fill="none" xmlns="http://www.w3.org/2000/svg">
<g clip-path="url(#clip0_1714_1462)">
<path fill-rule="evenodd" clip-rule="evenodd" d="M20.54 20.9096L13.41 16.743C13.46 16.512 13.5 16.2811 13.5 16.0402C13.5 15.7992 13.46 15.5683 13.41 15.3373L20.46 11.2108C21 11.7129 21.71 12.0241 22.5 12.0241C24.16 12.0241 25.5 10.6787 25.5 9.01205C25.5 7.34538 24.16 6 22.5 6C20.84 6 19.5 7.34538 19.5 9.01205C19.5 9.25301 19.54 9.48394 19.59 9.71486L12.54 13.8414C12 13.3394 11.29 13.0281 10.5 13.0281C8.84 13.0281 7.5 14.3735 7.5 16.0402C7.5 17.7068 8.84 19.0522 10.5 19.0522C11.29 19.0522 12 18.741 12.54 18.239L19.66 22.4157C19.61 22.6265 19.58 22.8474 19.58 23.0683C19.58 24.6847 20.89 26 22.5 26C24.11 26 25.42 24.6847 25.42 23.0683C25.42 21.4518 24.11 20.1365 22.5 20.1365C21.74 20.1365 21.06 20.4378 20.54 20.9096Z" fill="#70778B"/>
</g>
<defs>
<clipPath id="clip0_1714_1462">
<rect width="18" height="20" fill="white" transform="translate(7.5 6)"/>
</clipPath>
</defs>
</svg>
